<?xml version="1.0" encoding="utf-8"?>
<!-- Generator: Adobe Illustrator 18.1.1, SVG Export Plug-In . SVG Version: 6.00 Build 0)  -->
<svg version="1.1" id="Layer_1" xmlns="http://www.w3.org/2000/svg" xmlns:xlink="http://www.w3.org/1999/xlink" x="0px" y="0px"
	 viewBox="0 0 179.1 179.1" enable-background="new 0 0 179.1 179.1" xml:space="preserve">
<g>
	<line fill="#FFFFFF" stroke="#36DB9E" stroke-width="3" stroke-miterlimit="10" x1="1.1" y1="1.1" x2="178" y2="178"/>
	<line fill="#FFFFFF" stroke="#36DB9E" stroke-width="3" stroke-miterlimit="10" x1="1.1" y1="178" x2="178" y2="1.1"/>
</g>
<g>
	<path fill="#36DB9E" d="M58,22.1h-1.4c-0.4,0-0.7-0.1-0.8-0.2s-0.2-0.3-0.2-0.5c0-0.3,0.1-0.5,0.2-0.6s0.5-0.2,1.1-0.2h2.8
		c0.4,0,0.6,0,0.7,0.1s0.2,0.3,0.3,0.5l3.8,9.5h0.2c0.4,0,0.6,0,0.7,0.1s0.2,0.3,0.2,0.5c0,0.3-0.1,0.5-0.2,0.6s-0.4,0.2-0.7,0.2
		h-2.7c-0.5,0-0.8-0.1-1-0.2s-0.2-0.3-0.2-0.6c0-0.2,0.1-0.4,0.2-0.5s0.4-0.2,0.9-0.2h0.9L62,28.6h-5l-0.8,2.3h0.9
		c0.4,0,0.7,0.1,0.9,0.2s0.2,0.3,0.2,0.5c0,0.3-0.1,0.5-0.2,0.6s-0.4,0.2-0.9,0.2h-2.6c-0.4,0-0.7-0.1-0.8-0.2s-0.2-0.3-0.2-0.6
		c0-0.3,0.1-0.4,0.2-0.5s0.4-0.1,0.8-0.1h0.2L58,22.1z M57.5,27.3h4l-2.1-5.2L57.5,27.3z"/>
	<path fill="#36DB9E" d="M75.2,28.3c0-0.5,0-0.8,0.1-0.9s0.3-0.2,0.6-0.2c0.2,0,0.4,0.1,0.5,0.2s0.2,0.3,0.2,0.6v0.4v3.2
		c0,0.2-0.1,0.4-0.2,0.5c-0.1,0.1-0.3,0.2-0.5,0.2h-8.7h-0.5c-0.2,0-0.4-0.1-0.5-0.2c-0.1-0.1-0.2-0.3-0.2-0.5
		c0-0.3,0.1-0.4,0.2-0.5s0.5-0.1,1-0.1h1.2v-8.8h-1.2c-0.5,0-0.8-0.1-0.9-0.2s-0.2-0.3-0.2-0.6c0-0.2,0.1-0.4,0.2-0.5
		s0.3-0.2,0.6-0.2h0.4h4.4h0.5c0.2,0,0.4,0.1,0.5,0.2s0.2,0.3,0.2,0.5c0,0.3-0.1,0.5-0.2,0.6s-0.5,0.2-1,0.2H70v8.8h5.2V28.3z"/>
	<path fill="#36DB9E" d="M86.5,30.9c0.5,0,0.8,0,1,0.1s0.2,0.3,0.2,0.5c0,0.3-0.1,0.5-0.2,0.6s-0.5,0.2-1,0.2h-5.9h-0.5
		c-0.2,0-0.4-0.1-0.5-0.2c-0.1-0.1-0.2-0.3-0.2-0.5c0-0.3,0.1-0.4,0.2-0.5s0.5-0.1,1-0.1h2.2v-8.8h-2.2c-0.5,0-0.8-0.1-1-0.2
		s-0.2-0.3-0.2-0.6c0-0.2,0.1-0.4,0.2-0.5s0.3-0.2,0.6-0.2h0.4h5.9h0.5c0.2,0,0.4,0.1,0.5,0.2s0.2,0.3,0.2,0.5
		c0,0.3-0.1,0.5-0.2,0.6s-0.5,0.2-1,0.2h-2.2v8.8H86.5z"/>
	<path fill="#36DB9E" d="M98.6,21c0.1-0.2,0.2-0.3,0.3-0.4s0.3-0.1,0.5-0.1c0.2,0,0.4,0.1,0.5,0.2s0.1,0.4,0.1,0.7
		c0,0.6,0,1.2,0,1.8s0,0.8,0,0.7c0,0.3-0.1,0.5-0.2,0.6s-0.3,0.2-0.6,0.2c-0.4,0-0.7-0.3-0.8-0.9c0-0.2-0.1-0.3-0.1-0.4
		c-0.1-0.5-0.4-0.9-0.9-1.2s-1-0.5-1.7-0.5c-1.2,0-2.1,0.4-2.8,1.3s-1,2-1,3.4s0.4,2.6,1.1,3.4s1.6,1.3,2.8,1.3
		c0.4,0,0.8-0.1,1.2-0.2s0.8-0.3,1.2-0.5c0.2-0.1,0.4-0.2,0.7-0.5s0.5-0.3,0.7-0.3c0.2,0,0.4,0.1,0.5,0.2s0.2,0.3,0.2,0.5
		s-0.1,0.4-0.2,0.6s-0.4,0.4-0.9,0.7c-0.5,0.4-1.1,0.6-1.7,0.8s-1.1,0.3-1.7,0.3c-1.6,0-2.9-0.6-4-1.7s-1.6-2.6-1.6-4.4
		c0-1.8,0.5-3.2,1.6-4.4s2.4-1.7,4-1.7c0.4,0,0.9,0.1,1.3,0.2S98.1,20.8,98.6,21z"/>
	<path fill="#36DB9E" d="M110.5,30.9c0.5,0,0.8,0,1,0.1s0.2,0.3,0.2,0.5c0,0.3-0.1,0.5-0.2,0.6s-0.5,0.2-1,0.2h-5.9h-0.5
		c-0.2,0-0.4-0.1-0.5-0.2c-0.1-0.1-0.2-0.3-0.2-0.5c0-0.3,0.1-0.4,0.2-0.5s0.5-0.1,1-0.1h2.2v-8.8h-2.2c-0.5,0-0.8-0.1-1-0.2
		s-0.2-0.3-0.2-0.6c0-0.2,0.1-0.4,0.2-0.5s0.3-0.2,0.6-0.2h0.4h5.9h0.5c0.2,0,0.4,0.1,0.5,0.2s0.2,0.3,0.2,0.5
		c0,0.3-0.1,0.5-0.2,0.6s-0.5,0.2-1,0.2h-2.2v8.8H110.5z"/>
	<path fill="#36DB9E" d="M118,22.1h-1.4c-0.4,0-0.7-0.1-0.8-0.2s-0.2-0.3-0.2-0.5c0-0.3,0.1-0.5,0.2-0.6s0.5-0.2,1.1-0.2h2.8
		c0.4,0,0.6,0,0.7,0.1s0.2,0.3,0.3,0.5l3.8,9.5h0.2c0.4,0,0.6,0,0.7,0.1s0.2,0.3,0.2,0.5c0,0.3-0.1,0.5-0.2,0.6s-0.4,0.2-0.7,0.2
		h-2.7c-0.5,0-0.8-0.1-1-0.2s-0.2-0.3-0.2-0.6c0-0.2,0.1-0.4,0.2-0.5s0.4-0.2,0.9-0.2h0.9l-0.9-2.3h-5l-0.8,2.3h0.9
		c0.4,0,0.7,0.1,0.9,0.2s0.2,0.3,0.2,0.5c0,0.3-0.1,0.5-0.2,0.6s-0.4,0.2-0.9,0.2h-2.6c-0.4,0-0.7-0.1-0.8-0.2s-0.2-0.3-0.2-0.6
		c0-0.3,0.1-0.4,0.2-0.5s0.4-0.1,0.8-0.1h0.2L118,22.1z M117.5,27.3h4l-2.1-5.2L117.5,27.3z"/>
</g>
<g>
	<path fill="#36DB9E" d="M25,69.8c4.8,0,8.8,1.7,11.9,5.2c3.1,3.4,4.7,7.8,4.7,13.2c0,5.4-1.5,9.8-4.6,13.2c-3.1,3.4-7,5.1-11.9,5.1
		c-4.8,0-8.7-1.7-11.9-5.2c-3.1-3.4-4.7-7.8-4.7-13.1c0-5.4,1.5-9.7,4.6-13.2C16.2,71.5,20.2,69.8,25,69.8z M25,76.6
		c-2.5,0-4.5,1-5.9,3c-1.4,2-2.1,4.9-2.1,8.5c0,3.6,0.7,6.4,2.2,8.5s3.4,3.1,5.9,3.1c2.5,0,4.5-1,5.9-3.1c1.4-2,2.2-4.9,2.2-8.5
		c0-3.6-0.7-6.4-2.1-8.5C29.5,77.6,27.6,76.6,25,76.6z"/>
</g>
<g>
	<path fill="#36DB9E" d="M142.4,77.2l1.1,17.2l3.6-12.7c0.3-0.9,0.7-1.6,1.3-2.1c0.6-0.5,1.4-0.7,2.4-0.7s1.8,0.2,2.4,0.7
		c0.6,0.4,1,1.2,1.3,2.1l3.7,12.7l1-17.2h-0.8c-1.1,0-2-0.3-2.5-0.8c-0.5-0.5-0.8-1.3-0.8-2.4c0-1.2,0.3-2,0.8-2.5
		c0.5-0.5,1.5-0.7,2.8-0.7h7.1c1.3,0,2.3,0.3,2.8,0.8c0.6,0.5,0.8,1.3,0.8,2.5c0,1.1-0.3,1.9-0.8,2.4c-0.5,0.5-1.3,0.8-2.4,0.8h-0.5
		l-2.8,25.8c-0.1,1-0.3,1.7-0.6,2c-0.3,0.3-1,0.5-2.1,0.5H159c-0.8,0-1.4-0.2-1.8-0.5c-0.4-0.3-0.8-1.1-1.1-2.4l-5.4-17.4l-5.2,17.4
		c-0.4,1.2-0.7,2-1.1,2.3s-1,0.5-1.8,0.5h-1.4c-1.1,0-1.7-0.2-2-0.5c-0.3-0.3-0.5-1-0.6-2l-2.9-25.8h-0.5c-1,0-1.8-0.3-2.4-0.8
		c-0.5-0.5-0.8-1.3-0.8-2.4c0-1.2,0.3-2,0.8-2.5c0.6-0.5,1.5-0.8,2.8-0.8h7.1c1.3,0,2.3,0.3,2.8,0.8c0.6,0.5,0.8,1.3,0.8,2.5
		c0,1.1-0.3,1.9-0.8,2.4c-0.5,0.5-1.4,0.8-2.5,0.8H142.4z"/>
</g>
<g>
	<path fill="#36DB9E" d="M98.9,128.5h-6.1v21.9h4.9c1.3,0,2.2,0.3,2.8,0.8c0.6,0.5,0.8,1.3,0.8,2.5c0,1.2-0.3,2-0.8,2.5
		c-0.6,0.5-1.5,0.8-2.8,0.8H80.3c-1.3,0-2.2-0.3-2.8-0.8c-0.6-0.5-0.8-1.3-0.8-2.5c0-1.2,0.3-2,0.8-2.5s1.5-0.7,2.8-0.7h4.9v-21.9
		h-6.1l-0.2,5.9v0.7c0,0.9-0.3,1.7-0.8,2.2c-0.5,0.5-1.2,0.8-2.2,0.8c-1.1,0-1.9-0.3-2.4-0.8c-0.5-0.6-0.8-1.4-0.8-2.7v-0.2l0.3-8.8
		c0.1-1.7,0.3-2.8,0.7-3.1c0.4-0.4,1.3-0.5,2.6-0.5h25.2c1.3,0,2.1,0.2,2.6,0.5c0.4,0.4,0.7,1.4,0.7,3.1l0.3,8.8v0.2
		c0,1.2-0.2,2.1-0.7,2.7c-0.5,0.5-1.3,0.8-2.4,0.8c-1.1,0-1.8-0.3-2.3-0.8c-0.5-0.5-0.7-1.5-0.7-2.9L98.9,128.5z"/>
</g>
</svg>
