<svg xmlns="http://www.w3.org/2000/svg" xmlns:xlink="http://www.w3.org/1999/xlink" preserveAspectRatio="xMidYMid" width="44" height="55.94" viewBox="0 0 22 27.97">
  <defs>
    <style>
      .cls-1 {
        fill: #888;
        fill-rule: evenodd;
      }
    </style>
  </defs>
  <path d="M21.000,27.950 C20.822,27.950 20.644,27.902 20.485,27.807 L11.000,22.125 L1.515,27.807 C1.206,27.992 0.820,27.998 0.507,27.820 C0.194,27.642 -0.000,27.311 -0.000,26.951 L-0.000,0.994 C-0.000,0.442 0.448,-0.005 1.000,-0.005 L21.000,-0.005 C21.553,-0.005 22.000,0.442 22.000,0.994 L22.000,26.951 C22.000,27.311 21.807,27.642 21.493,27.820 C21.340,27.907 21.170,27.950 21.000,27.950 ZM11.000,19.962 C11.178,19.962 11.356,20.010 11.515,20.104 L20.000,25.187 L20.000,1.992 L2.000,1.992 L2.000,25.187 L10.485,20.104 C10.644,20.010 10.822,19.962 11.000,19.962 Z" class="cls-1"/>
</svg>
