<svg xmlns="http://www.w3.org/2000/svg" xmlns:xlink="http://www.w3.org/1999/xlink" preserveAspectRatio="xMidYMid" width="64" height="58" viewBox="0 0 32 29">
  <defs>
    <style>
      .cls-1 {
        fill: #888;
        fill-rule: evenodd;
      }
    </style>
  </defs>
  <path d="M28.530,21.287 L28.997,27.930 C29.021,28.274 28.866,28.607 28.586,28.811 C28.413,28.936 28.207,29.000 28.000,29.000 C27.872,29.000 27.743,28.976 27.620,28.925 L20.111,25.845 C18.693,26.150 17.346,26.300 16.000,26.300 C7.178,26.300 0.000,20.333 0.000,13.000 C0.000,5.710 7.028,-0.000 16.000,-0.000 C24.972,-0.000 32.000,5.710 32.000,13.000 C32.000,16.065 30.771,18.990 28.530,21.287 ZM16.000,2.000 C8.149,2.000 2.000,6.831 2.000,13.000 C2.000,19.231 8.280,24.300 16.000,24.300 C17.291,24.300 18.592,24.145 19.976,23.825 C20.050,23.809 20.125,23.800 20.200,23.800 C20.330,23.800 20.459,23.825 20.580,23.875 L26.890,26.464 L26.503,20.970 C26.481,20.673 26.594,20.382 26.810,20.176 C28.867,18.213 30.000,15.664 30.000,13.000 C30.000,6.831 23.851,2.000 16.000,2.000 ZM23.000,11.000 L9.000,11.000 C8.448,11.000 8.000,10.552 8.000,10.000 C8.000,9.448 8.448,9.000 9.000,9.000 L23.000,9.000 C23.553,9.000 24.000,9.448 24.000,10.000 C24.000,10.552 23.553,11.000 23.000,11.000 ZM9.000,15.000 L17.000,15.000 C17.553,15.000 18.000,15.448 18.000,16.000 C18.000,16.553 17.553,17.000 17.000,17.000 L9.000,17.000 C8.448,17.000 8.000,16.553 8.000,16.000 C8.000,15.448 8.448,15.000 9.000,15.000 Z" class="cls-1"/>
</svg>
